<?xml version="1.0" encoding="UTF-8"?>
<svg version="1.1" xmlns="http://www.w3.org/2000/svg" width="1871" height="1871">
<path d="M0 0 C4.539771 0.01709014 9.07901365 0.00688546 13.61876678 -0.01032257 C46.98576971 -0.11715994 80.31508035 1.56019403 113.44775391 5.64111328 C114.30178802 5.74338226 115.15582214 5.84565125 116.03573608 5.95101929 C200.58125213 16.11511299 284.40749757 37.31758191 362.94775391 70.39111328 C364.1869883 70.91021216 365.42624642 71.4292544 366.66552734 71.94824219 C384.19778936 79.30919798 401.40340228 87.25507904 418.45458984 95.66796875 C421.87777068 97.35659122 425.3070054 99.03241456 428.73681641 100.70751953 C442.03574027 107.23894948 455.04183908 114.15923413 467.85449219 121.59863281 C470.59483627 123.18660489 473.34223953 124.76160914 476.09236145 126.33256531 C492.55816902 135.75185045 508.45678254 145.80371458 524.13378906 156.48193359 C527.14869048 158.52744193 530.18578969 160.53593081 533.23193359 162.53442383 C549.69947271 173.36131082 565.35102377 185.36035698 580.94775391 197.39111328 C581.63417969 197.9201123 582.32060547 198.44911133 583.02783203 198.99414062 C590.46705563 204.74141773 597.72090891 210.66897266 604.86572266 216.77783203 C607.6841042 219.18192641 610.55947344 221.50879322 613.44775391 223.82861328 C618.83348805 228.20796206 623.89592189 232.89156166 628.96728516 237.62548828 C631.2137408 239.72022252 633.49248819 241.76440997 635.82275391 243.76611328 C647.78962798 254.14637556 659.04126289 265.32215332 670.22119141 276.53417969 C672.47004185 278.78845499 674.72427839 281.03724704 676.97900391 283.28564453 C678.43765842 284.74495898 679.89600317 286.20458314 681.35400391 287.66455078 C682.01452759 288.32305023 682.67505127 288.98154968 683.35559082 289.66000366 C687.19035629 293.51390261 690.84547725 297.47478825 694.39126587 301.59651184 C696.79486618 304.3678178 699.31328925 307.02856873 701.82275391 309.70361328 C706.36123914 314.57696877 710.64124188 319.59415306 714.81103516 324.78955078 C716.90657884 327.34098057 719.08738545 329.77438101 721.32275391 332.20361328 C725.84428902 337.17181651 729.95927596 342.39914905 734.07275391 347.70361328 C736.43788023 350.75185512 738.85184183 353.75662064 741.28222656 356.75292969 C748.21293349 365.31385245 754.75926215 374.13455495 761.23486328 383.04296875 C762.83118169 385.23130832 764.44159037 387.4083513 766.05712891 389.58251953 C807.61869696 445.8537462 842.20357485 508.80450826 868.94775391 573.39111328 C869.24105591 574.09697571 869.53435791 574.80283813 869.83654785 575.53009033 C885.46770025 613.20822957 898.92977536 651.85528407 909.39099121 691.29302979 C909.95358999 693.41310576 910.52136138 695.53175452 911.08935547 697.65039062 C931.32611731 773.49734345 941.63656123 851.95910455 941.33886719 930.44335938 C941.32177705 934.98313037 941.33198173 939.52237302 941.34918976 944.06212616 C941.45602713 977.42912909 939.77867316 1010.75843972 935.69775391 1043.89111328 C935.59548492 1044.7451474 935.49321594 1045.59918152 935.3878479 1046.47909546 C925.2237542 1131.02461151 904.02128527 1214.85085694 870.94775391 1293.39111328 C870.42865503 1294.63034768 869.90961279 1295.8696058 869.390625 1297.10888672 C862.02966921 1314.64114873 854.08378814 1331.84676165 845.67089844 1348.89794922 C843.98227596 1352.32113006 842.30645263 1355.75036477 840.63134766 1359.18017578 C834.09991771 1372.47909965 827.17963306 1385.48519846 819.74023438 1398.29785156 C818.1522623 1401.03819564 816.57725804 1403.78559891 815.00630188 1406.53572083 C805.58701674 1423.0015284 795.5351526 1438.90014191 784.85693359 1454.57714844 C782.81142526 1457.59204985 780.80293638 1460.62914906 778.80444336 1463.67529297 C767.97755637 1480.14283209 755.97851021 1495.79438314 743.94775391 1511.39111328 C743.41875488 1512.07753906 742.88975586 1512.76396484 742.34472656 1513.47119141 C736.59744946 1520.910415 730.66989452 1528.16426829 724.56103516 1535.30908203 C722.15694078 1538.12746358 719.83007396 1541.00283281 717.51025391 1543.89111328 C713.13090512 1549.27684742 708.44730552 1554.33928127 703.71337891 1559.41064453 C701.61864467 1561.65710017 699.57445722 1563.93584756 697.57275391 1566.26611328 C687.19249162 1578.23298736 676.01671387 1589.48462226 664.8046875 1600.66455078 C662.5504122 1602.91340122 660.30162014 1605.16763777 658.05322266 1607.42236328 C656.59390821 1608.8810178 655.13428405 1610.33936255 653.67431641 1611.79736328 C652.68656723 1612.7881488 652.68656723 1612.7881488 651.67886353 1613.7989502 C647.82496457 1617.63371567 643.86407894 1621.28883663 639.74235535 1624.83462524 C636.97104939 1627.23822555 634.31029846 1629.75664862 631.63525391 1632.26611328 C626.76189841 1636.80459852 621.74471413 1641.08460126 616.54931641 1645.25439453 C613.99788662 1647.34993822 611.56448617 1649.53074483 609.13525391 1651.76611328 C604.16705067 1656.2876484 598.93971814 1660.40263534 593.63525391 1664.51611328 C590.58701207 1666.88123961 587.58224655 1669.2952012 584.5859375 1671.72558594 C576.02501474 1678.65629287 567.20431224 1685.20262152 558.29589844 1691.67822266 C556.10755887 1693.27454106 553.93051589 1694.88494975 551.75634766 1696.50048828 C495.48512099 1738.06205633 432.53435893 1772.64693422 367.94775391 1799.39111328 C366.88896027 1799.83106628 366.88896027 1799.83106628 365.80877686 1800.27990723 C328.13063762 1815.91105963 289.48358312 1829.37313473 250.0458374 1839.83435059 C247.92576143 1840.39694937 245.80711267 1840.96472075 243.68847656 1841.53271484 C167.84152374 1861.76947669 89.37976263 1872.07992061 10.89550781 1871.78222656 C6.35573682 1871.76513643 1.81649416 1871.7753411 -2.72325897 1871.79254913 C-36.0902619 1871.8993865 -69.41957254 1870.22203253 -102.55224609 1866.14111328 C-103.83329727 1865.98770981 -103.83329727 1865.98770981 -105.14022827 1865.83120728 C-189.68574432 1855.66711357 -273.51198975 1834.46464465 -352.05224609 1801.39111328 C-353.29148049 1800.8720144 -354.53073861 1800.35297217 -355.77001953 1799.83398438 C-373.30228155 1792.47302859 -390.50789447 1784.52714752 -407.55908203 1776.11425781 C-410.98226287 1774.42563534 -414.41149758 1772.749812 -417.84130859 1771.07470703 C-431.14023246 1764.54327709 -444.14633127 1757.62299243 -456.95898438 1750.18359375 C-459.69932845 1748.59562167 -462.44673172 1747.02061742 -465.19685364 1745.44966125 C-481.66266121 1736.03037611 -497.56127473 1725.97851198 -513.23828125 1715.30029297 C-516.25318267 1713.25478463 -519.29028188 1711.24629576 -522.33642578 1709.24780273 C-538.8039649 1698.42091574 -554.45551595 1686.42186958 -570.05224609 1674.39111328 C-570.73867188 1673.86211426 -571.42509766 1673.33311523 -572.13232422 1672.78808594 C-579.57154782 1667.04080883 -586.8254011 1661.1132539 -593.97021484 1655.00439453 C-596.78859639 1652.60030015 -599.66396563 1650.27343334 -602.55224609 1647.95361328 C-607.93798023 1643.5742645 -613.00041408 1638.8906649 -618.07177734 1634.15673828 C-620.31823299 1632.06200404 -622.59698037 1630.01781659 -624.92724609 1628.01611328 C-636.89412017 1617.635851 -648.14575508 1606.46007324 -659.32568359 1595.24804688 C-661.57453404 1592.99377157 -663.82877058 1590.74497952 -666.08349609 1588.49658203 C-667.54215061 1587.03726758 -669.00049536 1585.57764343 -670.45849609 1584.11767578 C-671.11901978 1583.45917633 -671.77954346 1582.80067688 -672.46008301 1582.1222229 C-676.29484848 1578.26832395 -679.94996944 1574.30743832 -683.49575806 1570.18571472 C-685.89935836 1567.41440876 -688.41778144 1564.75365783 -690.92724609 1562.07861328 C-695.46573133 1557.20525779 -699.74573407 1552.18807351 -703.91552734 1546.99267578 C-706.01107103 1544.44124599 -708.19187764 1542.00784555 -710.42724609 1539.57861328 C-714.94878121 1534.61041005 -719.06376815 1529.38307751 -723.17724609 1524.07861328 C-725.54237242 1521.03037145 -727.95633401 1518.02560592 -730.38671875 1515.02929688 C-737.31742568 1506.46837411 -743.86375433 1497.64767161 -750.33935547 1488.73925781 C-751.93567388 1486.55091824 -753.54608256 1484.37387527 -755.16162109 1482.19970703 C-796.72318914 1425.92848036 -831.30806703 1362.9777183 -858.05224609 1298.39111328 C-858.3455481 1297.68525085 -858.6388501 1296.97938843 -858.94104004 1296.25213623 C-874.57219244 1258.57399699 -888.03426755 1219.92694249 -898.4954834 1180.48919678 C-899.05808218 1178.3691208 -899.62585357 1176.25047204 -900.19384766 1174.13183594 C-920.4306095 1098.28488311 -930.74105342 1019.82312201 -930.44335938 941.33886719 C-930.42626924 936.79909619 -930.43647392 932.25985354 -930.45368195 927.7201004 C-930.56051932 894.35309747 -928.88316535 861.02378684 -924.80224609 827.89111328 C-924.69997711 827.03707916 -924.59770813 826.18304504 -924.49234009 825.3031311 C-914.32824639 740.75761506 -893.12577746 656.93136962 -860.05224609 578.39111328 C-859.53314722 577.15187889 -859.01410498 575.91262076 -858.49511719 574.67333984 C-851.1341614 557.14107783 -843.18828033 539.93546491 -834.77539062 522.88427734 C-833.08676815 519.46109651 -831.41094481 516.03186179 -829.73583984 512.60205078 C-823.2044099 499.30312691 -816.28412525 486.29702811 -808.84472656 473.484375 C-807.25675449 470.74403092 -805.68175023 467.99662765 -804.11079407 465.24650574 C-794.69150892 448.78069816 -784.63964479 432.88208465 -773.96142578 417.20507812 C-771.91591745 414.19017671 -769.90742857 411.1530775 -767.90893555 408.10693359 C-757.08204856 391.63939447 -745.08300239 375.98784342 -733.05224609 360.39111328 C-732.52324707 359.7046875 -731.99424805 359.01826172 -731.44921875 358.31103516 C-725.70194165 350.87181156 -719.77438671 343.61795827 -713.66552734 336.47314453 C-711.26143297 333.65476299 -708.93456615 330.77939375 -706.61474609 327.89111328 C-702.23539731 322.50537914 -697.55179771 317.44294529 -692.81787109 312.37158203 C-690.72313686 310.12512639 -688.6789494 307.846379 -686.67724609 305.51611328 C-676.29698381 293.5492392 -665.12120606 282.2976043 -653.90917969 271.11767578 C-651.65490439 268.86882534 -649.40611233 266.6145888 -647.15771484 264.35986328 C-645.69840039 262.90120877 -644.23877624 261.44286401 -642.77880859 259.98486328 C-642.12030914 259.3243396 -641.46180969 258.66381592 -640.78335571 257.98327637 C-636.92945676 254.1485109 -632.96857113 250.49338993 -628.84684753 246.94760132 C-626.07554157 244.54400101 -623.41479064 242.02557794 -620.73974609 239.51611328 C-615.8663906 234.97762804 -610.84920632 230.69762531 -605.65380859 226.52783203 C-603.10237881 224.43228835 -600.66897836 222.25148174 -598.23974609 220.01611328 C-593.27154286 215.49457816 -588.04421032 211.37959123 -582.73974609 207.26611328 C-579.69150426 204.90098695 -576.68673874 202.48702536 -573.69042969 200.05664062 C-565.12950692 193.1259337 -556.30880442 186.57960504 -547.40039062 180.10400391 C-545.21205105 178.5076855 -543.03500808 176.89727681 -540.86083984 175.28173828 C-484.58961317 133.72017023 -421.63885111 99.13529234 -357.05224609 72.39111328 C-356.34638367 72.09781128 -355.64052124 71.80450928 -354.91326904 71.50231934 C-317.2351298 55.87116693 -278.5880753 42.40909183 -239.15032959 31.94787598 C-237.03025362 31.3852772 -234.91160485 30.81750581 -232.79296875 30.24951172 C-156.94601593 10.01274987 -78.48425482 -0.29769405 0 0 Z " fill="#FEFEFE" transform="translate(930.05224609375,-0.39111328125)"/>
<path d="M0 0 C2 1 2 1 2.75854492 3.11938477 C2.99677979 4.05065186 3.23501465 4.98191895 3.48046875 5.94140625 C3.89051147 7.51112183 3.89051147 7.51112183 4.30883789 9.11254883 C4.59879639 10.25103271 4.88875488 11.3895166 5.1875 12.5625 C5.81299631 14.95367738 6.44064872 17.34429165 7.0703125 19.734375 C7.39032227 20.95060547 7.71033203 22.16683594 8.04003906 23.41992188 C9.46696154 28.74148628 11.00398063 34.02821995 12.5625 39.3125 C12.85342529 40.30137207 13.14435059 41.29024414 13.4440918 42.30908203 C14.01986678 44.26571787 14.59595091 46.22226277 15.17236328 48.17871094 C19.26556312 62.13181339 23.16861199 76.1402328 27.08203125 90.14453125 C29.40557787 98.45647461 31.74462374 106.76405111 34.08319092 115.07177734 C35.98664222 121.8341068 37.88939409 128.59660258 39.77734375 135.36328125 C42.92920541 146.65990693 46.12009206 157.9445938 49.34744263 169.21984863 C51.03832771 175.12810145 52.72632378 181.03718049 54.41357422 186.94647217 C54.97463504 188.91117778 55.53613525 190.87575789 56.09765625 192.84033203 C57.06940118 196.24651971 58.03570001 199.65419831 59 203.0625 C59.41765625 204.52236328 59.41765625 204.52236328 59.84375 206.01171875 C61.52018742 211.9630716 62.8801808 217.91921705 64 224 C54.10096983 229.85945379 44.16039598 235.64212158 34.1875 241.375 C23.04400621 247.78438302 11.99058326 254.33212813 1 261 C-1.4358616 258.5641384 -1.72303448 256.92806651 -2.5859375 253.609375 C-3.0197876 251.96473267 -3.0197876 251.96473267 -3.46240234 250.28686523 C-3.76355957 249.11969971 -4.0647168 247.95253418 -4.375 246.75 C-4.99931572 244.38132995 -5.62431068 242.01283883 -6.25 239.64453125 C-6.55035156 238.50064941 -6.85070312 237.35676758 -7.16015625 236.17822266 C-8.1971113 232.25407126 -9.2717385 228.34353246 -10.375 224.4375 C-10.67148437 223.38433594 -10.96796875 222.33117187 -11.2734375 221.24609375 C-11.79433424 219.05394833 -11.79433424 219.05394833 -13 218 C-13.42265137 218.66717041 -13.84530273 219.33434082 -14.28076172 220.02172852 C-18.51467682 226.69192204 -22.8011188 233.32534966 -27.125 239.9375 C-28.45326059 241.97126562 -29.78138326 244.00512132 -31.109375 246.0390625 C-31.76615234 247.04485352 -32.42292969 248.05064453 -33.09960938 249.08691406 C-35.86423672 253.32477807 -38.61974491 257.56853937 -41.375 261.8125 C-49.58783476 274.45711359 -57.84857436 287.07043286 -66.10400391 299.68725586 C-70.05455217 305.72500171 -74.0039676 311.76347829 -77.94921875 317.8046875 C-80.60987791 321.87812548 -83.27973523 325.94529223 -85.95703125 330.0078125 C-87.1588953 331.83851466 -88.36072046 333.66924236 -89.5625 335.5 C-90.39442871 336.75562744 -90.39442871 336.75562744 -91.24316406 338.03662109 C-91.74170898 338.79797363 -92.24025391 339.55932617 -92.75390625 340.34375 C-93.19033447 341.00568359 -93.6267627 341.66761719 -94.07641602 342.34960938 C-95.16278261 343.97567601 -95.16278261 343.97567601 -95 346 C-93.65965698 344.99924438 -93.65965698 344.99924438 -92.29223633 343.97827148 C-82.94608654 337.03956801 -73.39913902 330.47644365 -63.6875 324.0625 C-62.22072787 323.09017463 -60.7541774 322.11751481 -59.2878418 321.14453125 C-56.44384857 319.25779669 -53.59877886 317.37270326 -50.75292969 315.48876953 C-46.95622514 312.97355052 -43.17343779 310.4379947 -39.39379883 307.8972168 C-12.58909454 289.90269215 15.02096513 273.09593491 43 257 C43.88461914 256.49017578 44.76923828 255.98035156 45.68066406 255.45507812 C74.79010899 238.69344342 104.21789782 222.53510848 134 207 C135.00611328 206.47438477 136.01222656 205.94876953 137.04882812 205.40722656 C160.48986088 193.17014186 184.0655162 181.24471043 208 170 C208.69373718 169.67386719 209.38747437 169.34773437 210.10223389 169.01171875 C247.65150322 151.37077984 285.54785865 134.60941877 323.92608643 118.85235596 C325.93709146 118.02585473 327.94700198 117.19675291 329.95654297 116.36669922 C398.12839762 88.22340192 467.72097852 62.8542044 538.21826172 41.1640625 C541.65911702 40.1049277 545.09755563 39.03839082 548.53515625 37.96875 C563.6447631 33.27964372 578.80049032 28.74329236 593.95776367 24.21118164 C595.19297508 23.84151024 595.19297508 23.84151024 596.45314026 23.46437073 C598.06352533 22.98285252 599.67422671 22.50239073 601.28526306 22.02305603 C604.86286809 20.9556527 608.43126336 19.87092972 611.98193359 18.71679688 C613.1467627 18.34103516 614.3115918 17.96527344 615.51171875 17.578125 C617.00964966 17.0816748 617.00964966 17.0816748 618.5378418 16.57519531 C621 16 621 16 624 17 C622.93080322 17.38631592 621.86160645 17.77263184 620.76000977 18.1706543 C597.0250478 26.75641162 573.41492949 35.57580255 550 45 C548.65870472 45.53877013 547.31739606 46.07750693 545.97607422 46.61621094 C506.95388189 62.30265073 468.28687261 78.79347634 429.96191406 96.11407471 C427.90100456 97.04470255 425.83926161 97.97346404 423.77734375 98.90185547 C420.1242536 100.54693937 416.47290162 102.19582942 412.82266235 103.847229 C411.43230339 104.47578691 410.04151641 105.10339921 408.65023804 105.72991943 C399.98331845 109.6350222 391.44126441 113.73358099 382.9543457 118.01538086 C379.14963304 119.93227634 375.3223701 121.79923191 371.484375 123.6484375 C370.55100815 124.09832283 370.55100815 124.09832283 369.5987854 124.55729675 C368.31508772 125.17576424 367.03131372 125.79407333 365.74746704 126.41223145 C330.40340843 143.40548713 330.40340843 143.40548713 295.74511719 161.73754883 C289.08269683 165.43540969 282.33818965 168.95209063 275.5625 172.4375 C264.52071964 178.1352249 253.70414265 184.17265602 242.91992188 190.34082031 C239.94046937 192.03382693 236.94932623 193.7040175 233.953125 195.3671875 C219.46632425 203.40891964 205.18455547 211.74586254 190.95996094 220.23876953 C187.69800609 222.17969186 184.42340741 224.09780609 181.14428711 226.00952148 C171.58034275 231.58877811 162.17226116 237.4107399 152.77880859 243.27148438 C150.0208478 244.98703194 147.25546197 246.68999744 144.48828125 248.390625 C129.18240007 257.83072399 114.22656795 267.75643545 99.29841614 277.77842712 C94.51684692 280.98751011 89.72498735 284.18064285 84.92578125 287.36328125 C53.54070928 308.1845046 22.76025339 329.9042049 -7 353 C-8.60223887 354.23146468 -10.20625184 355.46059417 -11.81030273 356.68969727 C-24.71212597 366.58335346 -37.41131842 376.71123875 -50 387 C-51.01320313 387.82757812 -52.02640625 388.65515625 -53.0703125 389.5078125 C-54.86035159 390.9714627 -56.6494574 392.43625525 -58.4375 393.90234375 C-60.16341791 395.31517594 -61.89265902 396.72395709 -63.625 398.12890625 C-73.84555206 406.4331048 -83.82542699 414.99031043 -93.56640625 423.8515625 C-96.19246999 426.16991733 -98.89486806 428.36790834 -101.625 430.5625 C-105.62428295 433.79680056 -109.31601589 437.15270996 -112.85546875 440.8828125 C-115.42857017 443.4231057 -118.14538032 445.76503157 -120.87475586 448.13525391 C-124.21092744 451.06250014 -127.45234064 454.08698821 -130.6875 457.125 C-131.71907227 458.09179688 -131.71907227 458.09179688 -132.77148438 459.078125 C-137.8239108 463.83664296 -142.74726808 468.70867303 -147.62548828 473.64477539 C-150.93055345 476.97521633 -154.33697548 480.09287954 -157.90625 483.1328125 C-164.80161903 489.28204085 -171.24359843 495.97418157 -177.2265625 503.0078125 C-179.39113418 505.43937981 -181.68429453 507.71211081 -184 510 C-187.48090062 513.44436943 -190.77503619 516.95324895 -193.95703125 520.671875 C-196.73946224 523.8426759 -199.62107912 526.91691757 -202.5 530 C-207.09048886 534.92598489 -211.6329204 539.87342829 -216 545 C-217.26070312 546.47726562 -217.26070312 546.47726562 -218.546875 547.984375 C-223.61889692 553.9449782 -228.63905398 559.94480801 -233.57421875 566.01953125 C-235.35924637 568.21272944 -237.15354219 570.39632283 -238.95703125 572.57421875 C-247.36745436 582.77027513 -255.24393979 593.30070408 -263 604 C-264.12868184 605.54834069 -265.25758503 607.09652006 -266.38671875 608.64453125 C-273.42459876 618.31761335 -280.27461694 628.10735237 -287 638 C-288.29040899 634.12877304 -287.44964194 633.22231404 -285.7109375 629.6015625 C-285.18846436 628.49804443 -284.66599121 627.39452637 -284.12768555 626.25756836 C-283.84291351 625.66748993 -283.55814148 625.0774115 -283.26473999 624.4694519 C-281.7334496 621.29505094 -280.23496852 618.10512917 -278.73046875 614.91796875 C-278.26164024 613.92855034 -278.26164024 613.92855034 -277.78334045 612.91914368 C-274.65329306 606.30223368 -271.66210341 599.62558546 -268.6875 592.9375 C-263.91795376 582.24103245 -259.07252578 571.58169235 -254.1875 560.9375 C-248.74609111 549.07935845 -243.39867942 537.18362325 -238.125 525.25 C-232.17182522 511.77938357 -226.05460127 498.3916836 -219.8550415 485.03283691 C-214.4601547 473.40231669 -209.17682152 461.72913949 -204 450 C-198.09357796 436.6178025 -192.02257319 423.31959292 -185.86355591 410.05187988 C-179.9167311 397.23515156 -174.12306517 384.35735054 -168.4140625 371.43310547 C-164.8688691 363.41004425 -161.31511745 355.39951561 -157.5 347.5 C-153.29751673 338.79783677 -149.40656658 329.96262414 -145.5 321.125 C-139.99019909 308.66378139 -134.39600383 296.24647242 -128.6875 283.875 C-122.5285357 270.52445417 -116.42693559 257.14942322 -110.375 243.75 C-109.97340668 242.86092957 -109.57181335 241.97185913 -109.15805054 241.05584717 C-107.56375837 237.52620514 -105.96946906 233.99656182 -104.37538147 230.46682739 C-101.06098788 223.12994438 -97.73211236 215.79971191 -94.3973999 208.4720459 C-76.75263111 169.87207089 -76.75263111 169.87207089 -59.55957031 131.0703125 C-56.7779856 124.68102435 -53.85378036 118.36363315 -50.89648438 112.05444336 C-47.51902276 104.84510638 -44.19963263 97.60880776 -40.875 90.375 C-40.5056131 89.57153137 -40.1362262 88.76806274 -39.75564575 87.94024658 C-34.40771602 76.30261693 -29.12396688 64.63898667 -23.90625 52.94238281 C-18.77522686 41.45544942 -13.53871668 30.01739266 -8.29077148 18.58349609 C-7.96097794 17.86421936 -7.63118439 17.14494263 -7.29139709 16.40386963 C-6.67754604 15.06525339 -6.06297292 13.7269679 -5.44749451 12.38909912 C-3.56588138 8.2854057 -1.76383438 4.15518034 0 0 Z " fill="#2B3B9D" transform="translate(947,356)"/>
<path d="M0 0 C18.459375 -0.061875 36.91875 -0.12375 55.9375 -0.1875 C61.7343335 -0.21481201 67.53116699 -0.24212402 73.50366211 -0.27026367 C80.66320801 -0.28381348 80.66320801 -0.28381348 84.03053284 -0.28633118 C86.34813676 -0.29089349 88.66573422 -0.30135076 90.98329163 -0.31672668 C117.7908292 -0.48546278 143.42176387 2.06089334 164.09375 20.99609375 C178.62620455 36.2730388 184.5040921 55.46566474 184.21484375 76.1875 C183.62014695 94.62679455 177.05576366 113.15970077 163.421875 126.02734375 C155.12265153 132.78719513 145.90178961 137.97866095 136 142 C143.00594791 151.02194517 150.17171407 159.89519373 157.44921875 168.69921875 C165.43152723 178.35696121 173.327884 188.07849778 181.0234375 197.96655273 C184.94587424 202.98637239 189.04676072 207.84133284 193.19921875 212.671875 C195 215 195 215 195 217 C187.42137324 217.42038167 179.84397277 217.73846922 172.25628471 217.93261909 C168.73026042 218.02592122 165.21229637 218.15186218 161.69091797 218.35791016 C139.04706672 219.64856596 139.04706672 219.64856596 132.37319946 215.28091431 C128.0402311 211.16338019 125.02206903 206.44629168 122.22340393 201.19873047 C120.43870139 197.99122086 118.24694439 195.28690509 115.9375 192.4375 C113.28216421 188.9807986 110.63256848 185.5198455 107.98828125 182.0546875 C101.56047303 173.63319086 95.09755083 165.24108006 88.58105469 156.88793945 C88.02579102 156.17597412 87.47052734 155.46400879 86.8984375 154.73046875 C86.41036621 154.10551514 85.92229492 153.48056152 85.41943359 152.83666992 C83.92715883 150.90574748 82.46421459 148.95228612 81 147 C71.1 146.67 61.2 146.34 51 146 C51 169.43 51 192.86 51 217 C34.17 217 17.34 217 0 217 C0 145.39 0 73.78 0 0 Z " fill="#2B3B9D" transform="translate(1001,1072)"/>
<path d="M0 0 C1.96665572 2.94998358 2.72078783 5.05323717 3.66845703 8.43139648 C3.98233368 9.54023697 4.29621033 10.64907745 4.61959839 11.79151917 C4.95395905 12.99340378 5.2883197 14.19528839 5.6328125 15.43359375 C5.98513947 16.68385849 6.33746643 17.93412323 6.70046997 19.22227478 C7.62535256 22.50446067 8.54398367 25.78836262 9.46113586 29.07271576 C10.30077145 32.07572955 11.14616318 35.07711871 11.99121094 38.07861328 C13.62220338 43.87601814 15.24739505 49.67502992 16.87063599 55.47460938 C21.72832966 72.82775359 26.59653878 90.17749294 31.5625 107.5 C36.66928941 125.32046774 41.71617358 143.15228829 46.5 161.0625 C49.25521185 171.36849405 52.18272217 181.61433366 55.1953125 191.84765625 C57.10159863 198.3263266 58.96081439 204.81804249 60.8125 211.3125 C61.14548096 212.47998779 61.47846191 213.64747559 61.8215332 214.8503418 C62.51969712 217.2989436 63.217691 219.74759388 63.91552734 222.19628906 C65.21595907 226.75746114 66.51839275 231.31805843 67.82220459 235.87826538 C68.83086694 239.40640464 69.83806841 242.93494806 70.84228516 246.46435547 C73.13577684 254.51799447 75.45209493 262.56441631 77.79888916 270.60270691 C79.11010036 275.0985287 80.41353831 279.59658748 81.71624756 284.09487915 C82.36180523 286.31660282 83.01091459 288.53729768 83.66363525 290.75692749 C84.58037044 293.87576841 85.48479743 296.99794206 86.38671875 300.12109375 C86.66636978 301.06116272 86.94602081 302.00123169 87.23414612 302.9697876 C87.48260788 303.83883728 87.73106964 304.70788696 87.98706055 305.60327148 C88.20782761 306.35930161 88.42859467 307.11533173 88.65605164 307.89427185 C89.03887592 310.238007 88.73126601 311.760405 88 314 C76.91102904 307.27170635 65.82992297 300.53247772 54.8125 293.6875 C35.01364223 281.40378636 15.08280068 269.36707035 -5.08203125 257.69287109 C-8.00667344 255.99612837 -10.92604863 254.29067847 -13.84375 252.58203125 C-38.70032929 238.02685968 -63.73449559 223.83066964 -89 210 C-89.99757324 209.45359863 -90.99514648 208.90719727 -92.02294922 208.34423828 C-97.4508583 205.37298615 -102.88375766 202.41104557 -108.32080078 199.45654297 C-111.04704365 197.97442478 -113.77156996 196.48918176 -116.49609375 195.00390625 C-131.92190751 186.60834758 -147.43938904 178.38983981 -162.97016907 170.19067383 C-168.31646954 167.36628961 -173.65257071 164.52303902 -178.98146057 161.66593933 C-183.93998305 159.01317101 -188.9491916 156.47192505 -194 154 C-186.44341365 144.55426706 -177.16980472 136.86650954 -167.78125 129.3125 C-164.75975411 126.80024499 -161.87620207 124.17538616 -159 121.5 C-142.87860073 106.55783182 -142.87860073 106.55783182 -138 106 C-135.3371582 106.87695312 -135.3371582 106.87695312 -132.30078125 108.28125 C-131.18219727 108.79018799 -130.06361328 109.29912598 -128.91113281 109.82348633 C-127.72358398 110.37673584 -126.53603516 110.92998535 -125.3125 111.5 C-123.46913325 112.343403 -121.62383412 113.18245906 -119.77822876 114.02095032 C-117.95954146 114.84722943 -116.14211716 115.6762866 -114.32470703 116.50537109 C-110.17049457 118.37290588 -105.97695936 120.11767615 -101.75 121.8125 C-95.48402387 124.34654552 -89.3508525 127.10534281 -83.2421875 130 C-78.03768018 132.4646284 -72.79911386 134.85455 -67.5625 137.25 C-66.55566162 137.71092041 -65.54882324 138.17184082 -64.51147461 138.64672852 C-62.42455326 139.60204991 -60.33755645 140.55720644 -58.25048828 141.51220703 C-52.66593589 144.06833308 -47.08306415 146.62812543 -41.5 149.1875 C-39.46875737 150.11850567 -37.43750807 151.04949678 -35.40625 151.98046875 C-33.9375 152.65364583 -32.46875 153.32682292 -31 154 C-36.10439233 135.31788407 -41.34787734 116.6869576 -46.85449219 98.11865234 C-50.33769459 86.37227707 -53.72648782 74.60070874 -56.94558716 62.77911377 C-57.31281748 61.43507544 -57.68328081 60.09191595 -58.05709839 58.74969482 C-58.57883773 56.87220837 -59.08658577 54.99085095 -59.59375 53.109375 C-59.88958984 52.02624023 -60.18542969 50.94310547 -60.49023438 49.82714844 C-60.99650997 47.01935561 -61.13549265 45.59146154 -60 43 C-58.63989258 41.60302734 -58.63989258 41.60302734 -56.89453125 40.3359375 C-56.24863037 39.85930664 -55.60272949 39.38267578 -54.93725586 38.89160156 C-54.23608643 38.39112305 -53.53491699 37.89064453 -52.8125 37.375 C-52.08490479 36.84358398 -51.35730957 36.31216797 -50.60766602 35.76464844 C-48.41254609 34.16584909 -46.20731963 32.58189543 -44 31 C-42.87716918 30.18549515 -41.75473379 29.37044471 -40.6328125 28.5546875 C-32.19298645 22.46728241 -23.63223869 16.55059667 -15.08178711 10.62011719 C-10.02876097 7.11479874 -4.99305905 3.59028029 0 0 Z " fill="#2A3A9D" transform="translate(1034,663)"/>
<path d="M0 0 C17.82 0 35.64 0 54 0 C63.12732558 18.25465116 63.12732558 18.25465116 66.0625 25.5625 C68.58707892 31.79735894 71.33340432 37.90523236 74.19596863 43.99108887 C77.3590163 50.73073949 80.3809525 57.53033891 83.39172363 64.33908081 C85.13550518 68.28218114 86.88442196 72.22300419 88.6328125 76.1640625 C88.99435425 76.97928879 89.355896 77.79451508 89.72839355 78.63444519 C93.54861784 87.24456532 97.39862414 95.84128145 101.25 104.4375 C107.92887215 119.34696021 114.56744262 134.27404817 121.19415283 149.20675659 C128.22130801 165.03829844 135.30876284 180.84206303 142.44116211 196.62646484 C142.80172195 197.42535126 143.1622818 198.22423767 143.5337677 199.04733276 C144.20144238 200.52653524 144.86998451 202.00534663 145.53959656 203.4836731 C150 213.3684247 150 213.3684247 150 217 C132.18 217 114.36 217 96 217 C92.39233141 209.18338471 88.88170063 201.4921 85.75 193.5 C85.24339844 192.21996094 85.24339844 192.21996094 84.7265625 190.9140625 C84.10477459 189.34245685 83.48442885 187.77027902 82.86621094 186.19726562 C81.91913597 183.79487703 80.95905283 181.39763209 80 179 C44.69 178.67 9.38 178.34 -27 178 C-27.99 180.97 -28.98 183.94 -30 187 C-30.93551146 189.40587542 -31.8957178 191.80232447 -32.8828125 194.1875 C-33.14254852 194.8160791 -33.40228455 195.4446582 -33.66989136 196.09228516 C-34.21120731 197.40019873 -34.75402934 198.70748998 -35.29833984 200.01416016 C-36.13416488 202.02201629 -36.96385568 204.03233301 -37.79296875 206.04296875 C-38.32255874 207.32046094 -38.85249369 208.59781019 -39.3828125 209.875 C-39.86121582 211.02742188 -40.33961914 212.17984375 -40.83251953 213.3671875 C-42 216 -42 216 -43 217 C-44.68801985 217.09353163 -46.37995207 217.11744791 -48.07055664 217.11352539 C-49.15160172 217.11344986 -50.23264679 217.11337433 -51.34645081 217.11329651 C-53.110485 217.10555458 -53.110485 217.10555458 -54.91015625 217.09765625 C-56.10732773 217.0962413 -57.30449921 217.09482635 -58.53794861 217.09336853 C-62.37949066 217.08774979 -66.22097543 217.07519411 -70.0625 217.0625 C-72.65950437 217.05748741 -75.25650965 217.05292409 -77.85351562 217.04882812 C-84.23569679 217.03777427 -90.6178443 217.02101792 -97 217 C-91.53115458 204.10157661 -85.92525344 191.27670618 -80.11715698 178.52752686 C-78.04140032 173.97004482 -75.97371012 169.40890666 -73.90625 164.84765625 C-73.48963608 163.92867554 -73.07302216 163.00969482 -72.64378357 162.06286621 C-68.69905291 153.3524137 -64.81044496 144.61755789 -60.9375 135.875 C-55.33476525 123.23037495 -49.68433619 110.60815393 -44 98 C-38.29685569 85.34933376 -32.62506903 72.68557696 -27 60 C-21.06086089 46.60691335 -15.07560049 33.23504654 -9.0625 19.875 C-8.66297119 18.98699707 -8.26344238 18.09899414 -7.85180664 17.18408203 C-6.72600583 14.68235429 -5.59950946 12.18094136 -4.47265625 9.6796875 C-4.13492691 8.92944305 -3.79719757 8.17919861 -3.44923401 7.40621948 C-1.11685039 2.23370078 -1.11685039 2.23370078 0 0 Z " fill="#2B3A9D" transform="translate(1303,1072)"/>
<path d="M0 0 C0.95708359 0.00222061 1.91416718 0.00444122 2.9002533 0.00672913 C3.98129837 0.00680466 5.06234344 0.00688019 6.17614746 0.00695801 C7.94018166 0.01469994 7.94018166 0.01469994 9.73985291 0.02259827 C10.93702438 0.02401321 12.13419586 0.02542816 13.36764526 0.02688599 C17.20918732 0.03250472 21.05067208 0.04506041 24.89219666 0.05775452 C27.48920102 0.0627671 30.0862063 0.06733043 32.68321228 0.07142639 C39.06539344 0.08248024 45.44754096 0.0992366 51.82969666 0.12025452 C57.10990367 11.27936578 62.16226661 22.53310562 67.16001892 33.82118225 C69.38283323 38.84148151 71.61041199 43.85966661 73.83750916 48.87806702 C74.27528687 49.86482422 74.71306458 50.85158142 75.16410828 51.86824036 C78.53370538 59.46081455 81.92412318 67.04374054 85.32969666 74.62025452 C90.32584404 85.73882015 95.27834321 96.87637608 100.22337341 108.01774597 C106.76808269 122.76310132 113.33323959 137.49855802 119.96315002 152.20582581 C123.25532669 159.50913645 126.54279206 166.81456996 129.82969666 174.12025452 C130.2073114 174.95927307 130.58492615 175.79829163 130.97398376 176.66273499 C133.24347417 181.70679101 135.50762725 186.75318599 137.76463318 191.80284119 C138.46550723 193.36896334 139.16801884 194.93435384 139.87229919 196.49894714 C140.84172602 198.65330389 141.80516924 200.81024172 142.76719666 202.96791077 C143.04964233 203.592099 143.33208801 204.21628723 143.62309265 204.85939026 C145.43809394 208.95284477 146.57724972 212.73669024 147.82969666 217.12025452 C129.67969666 217.12025452 111.52969666 217.12025452 92.82969666 217.12025452 C90.72594666 211.98462952 88.62219666 206.84900452 86.45469666 201.55775452 C85.79421326 199.95085754 85.13372986 198.34396057 84.45323181 196.68836975 C83.92478358 195.39364786 83.39660824 194.09881454 82.86875916 192.80384827 C82.59829773 192.14872253 82.3278363 191.4935968 82.04917908 190.81861877 C80.33317153 186.59623358 79.09390199 182.54497319 77.82969666 178.12025452 C42.51969666 178.45025452 7.20969666 178.78025452 -29.17030334 179.12025452 C-33.79030334 190.34025452 -38.41030334 201.56025452 -43.17030334 213.12025452 C-43.83030334 214.44025452 -44.49030334 215.76025452 -45.17030334 217.12025452 C-62.99030334 217.12025452 -80.81030334 217.12025452 -99.17030334 217.12025452 C-96.92056398 210.37103643 -96.92056398 210.37103643 -95.54481506 207.33851624 C-95.23559113 206.65288605 -94.92636719 205.96725586 -94.60777283 205.260849 C-94.10892075 204.16645004 -94.10892075 204.16645004 -93.59999084 203.04994202 C-93.24703949 202.26902191 -92.89408813 201.48810181 -92.53044128 200.68351746 C-91.76922452 198.99991992 -91.00672 197.31690415 -90.24305725 195.63441467 C-88.18925648 191.10901999 -86.14518388 186.57923168 -84.09999084 182.04994202 C-83.68303955 181.12719482 -83.26608826 180.20444763 -82.83650208 179.2537384 C-78.91036051 170.55908745 -75.03498279 161.84235492 -71.17030334 153.12025452 C-65.16939715 139.58414726 -59.10940554 126.0754406 -53.02378845 112.57722473 C-47.39579759 100.09215018 -41.81521248 87.58699546 -36.26725769 75.06617737 C-29.83288717 60.55115617 -23.29342874 46.08434592 -16.72718811 31.6285553 C-15.96717669 29.95398798 -15.2073261 28.27934766 -14.44764709 26.60462952 C-14.08415665 25.80366852 -13.7206662 25.00270752 -13.34616089 24.17747498 C-10.5995351 18.10873472 -7.91763917 12.0132161 -5.29187012 5.89118958 C-2.81405133 0.155924 -2.81405133 0.155924 0 0 Z " fill="#2B3A9D" transform="translate(439.17030334472656,1071.8797454833984)"/>
<path d="M0 0 C0.83110291 0.00209473 1.66220581 0.00418945 2.51849365 0.00634766 C28.41728215 0.14038073 62.13689056 5.20300552 82.09375 23.734375 C82.88265625 24.60835937 82.88265625 24.60835937 83.6875 25.5 C82.98625 26.51578125 82.285 27.5315625 81.5625 28.578125 C76.45307171 35.98923596 71.38844791 43.42326169 66.4140625 50.92578125 C64.23895461 54.16875886 61.9840898 57.34218903 59.6875 60.5 C58.87410156 59.99210937 58.06070313 59.48421875 57.22265625 58.9609375 C36.29144491 46.24217951 10.56824084 39.54150426 -13.8203125 44.8046875 C-21.7280922 47.01093325 -28.95045102 49.96100107 -34.6875 56 C-37.08700534 61.16816535 -37.06006712 65.89710001 -36.3125 71.5 C-33.4682697 77.75730665 -28.09717828 81.32566139 -21.89453125 83.94140625 C-11.66046965 86.98511162 -1.49027949 88.57923091 9.08740234 89.98510742 C33.79996898 93.33322942 58.5163155 99.39104558 76.6875 117.5 C77.3371875 118.12648438 77.986875 118.75296875 78.65625 119.3984375 C90.36051993 131.56471809 92.29642649 147.02987481 91.99609375 163.0703125 C91.39002114 177.70155909 84.32113655 191.66371832 74.25 202.16015625 C49.77775188 224.50600476 17.5185842 227.91713731 -14.3125 226.5 C-41.19043781 224.52571849 -74.31381378 215.8350957 -93.3125 195.5 C-89.32516259 189.82433053 -85.32490131 184.15797984 -81.3125 178.5 C-80.71453613 177.65663086 -80.11657227 176.81326172 -79.50048828 175.94433594 C-77.73458847 173.4592073 -75.96212046 170.97890652 -74.1875 168.5 C-73.63167236 167.71705566 -73.07584473 166.93411133 -72.50317383 166.12744141 C-71.98392334 165.40476074 -71.46467285 164.68208008 -70.9296875 163.9375 C-70.47190918 163.29683594 -70.01413086 162.65617187 -69.54248047 161.99609375 C-68.3125 160.5 -68.3125 160.5 -66.3125 159.5 C-63.82875281 160.95692976 -61.45473095 162.46675107 -59.0625 164.0625 C-36.51012684 178.59196911 -10.05790026 183.95143722 16.53955078 180.08544922 C25.57413219 178.12913508 33.36553622 174.75892792 39.125 167.375 C41.78041623 162.11014877 41.64968496 156.05737398 40.1328125 150.44921875 C37.5229561 144.84424143 32.13608575 141.94975173 26.6875 139.5 C19.33830251 136.84659199 11.89973399 135.59455476 4.1875 134.5 C1.87622433 134.1554691 -0.43497342 133.81041513 -2.74609375 133.46484375 C-5.82796252 133.01091136 -8.91004391 132.55858306 -11.99267578 132.10986328 C-32.57337899 129.07949919 -54.52625014 123.91207524 -70.3125 109.5 C-70.90933594 109.02820312 -71.50617187 108.55640625 -72.12109375 108.0703125 C-80.10547701 101.20623246 -85.84445796 88.8184995 -87.13671875 78.46484375 C-88.26650864 59.40905419 -86.3861896 42.80031772 -73.40063477 27.67651367 C-54.53047944 6.77363113 -27.21852245 -0.15768215 0 0 Z " fill="#2B3B9D" transform="translate(686.3125,1067.5)"/>
<path d="M0 0 C60.72 0 121.44 0 184 0 C184 14.85 184 29.7 184 45 C161.89 45 139.78 45 117 45 C117 101.76 117 158.52 117 217 C100.17 217 83.34 217 66 217 C66 160.24 66 103.48 66 45 C44.22 45 22.44 45 0 45 C0 30.15 0 15.3 0 0 Z " fill="#2C3C9E" transform="translate(790,1072)"/>
<path d="M0 0 C-11.81859913 3.31370611 -23.65952413 6.52233864 -35.53515625 9.625 C-37.1710968 10.05355472 -38.80700076 10.48224911 -40.44287109 10.91107178 C-44.76172771 12.04292459 -49.08096004 13.17333651 -53.40028763 14.3033905 C-61.46531733 16.41373164 -69.5296132 18.52687484 -77.59375 20.640625 C-78.47684404 20.87205452 -79.35993809 21.10348404 -80.26979256 21.34192657 C-91.48829524 24.28254147 -102.70161097 27.24134249 -113.90625 30.234375 C-115.06354111 30.54322632 -116.22083221 30.85207764 -117.41319275 31.17028809 C-122.61751939 32.55990683 -127.82056592 33.95405509 -133.02172852 35.35546875 C-134.81783621 35.83606788 -136.61397647 36.31654534 -138.41015625 36.796875 C-139.19181152 37.00938904 -139.9734668 37.22190308 -140.77880859 37.44085693 C-145.17777409 38.61266844 -149.47998284 39.44733415 -154 40 C-154 40.66 -154 41.32 -154 42 C-152.93434814 42.19178833 -152.93434814 42.19178833 -151.84716797 42.38745117 C-146.46709402 43.5449375 -141.31988785 45.51676613 -136.125 47.3125 C-135.45716492 47.54253723 -134.78932983 47.77257446 -134.10125732 48.00958252 C-111.01659851 55.97499649 -88.09442098 64.40730643 -65.17529297 72.83435059 C-62.18989702 73.93028884 -59.20275217 75.0212851 -56.21484375 76.11035156 C-52.07756094 77.61951168 -47.94631776 79.14393224 -43.82049561 80.68414307 C-42.36907344 81.22349866 -40.91567695 81.75757385 -39.46026611 82.28607178 C-37.50142872 82.99878931 -35.55095372 83.73066292 -33.6015625 84.46875 C-32.53244629 84.86513672 -31.46333008 85.26152344 -30.36181641 85.66992188 C-28 87 -28 87 -26.99804688 88.79492188 C-27.00082381 91.93008386 -28.07330316 93.99058165 -29.4296875 96.8125 C-30.24626831 98.53678223 -30.24626831 98.53678223 -31.0793457 100.29589844 C-31.67779607 101.53064795 -32.27634948 102.76534752 -32.875 104 C-33.47423063 105.25750499 -34.07212426 106.51564794 -34.66870117 107.77441406 C-35.57136236 109.67870218 -36.47478165 111.58257789 -37.3825531 113.48443604 C-40.11038204 119.20200327 -42.72980688 124.96545299 -45.3125 130.75 C-45.87976807 132.01650391 -45.87976807 132.01650391 -46.45849609 133.30859375 C-47.30729153 135.20500158 -48.15393745 137.10237134 -49 139 C-56.3292705 136.77001427 -62.96000596 133.71609074 -69.8125 130.3125 C-82.48814722 124.10660296 -95.33082297 118.32655311 -108.24926758 112.64575195 C-114.9746692 109.68650224 -121.68386812 106.70767472 -128.33203125 103.578125 C-137.46842024 99.28029809 -146.7007197 95.20155218 -155.9375 91.125 C-156.86330872 90.71603485 -157.78911743 90.3070697 -158.74298096 89.88571167 C-178.74414215 81.05682577 -198.84142793 72.46261973 -219 64 C-219.66116821 63.72216675 -220.32233643 63.4443335 -221.00354004 63.15808105 C-241.86357547 54.3953948 -262.87309641 46.00874872 -283.89208984 37.63671875 C-288.59672121 35.76279558 -293.29903227 33.88309442 -298 32 C-298 31.34 -298 30.68 -298 30 C-296.55494835 29.85085648 -296.55494835 29.85085648 -295.08070374 29.69869995 C-216.27112417 21.58591174 -216.27112417 21.58591174 -137.48828125 13.21875 C-136.78564651 13.14279602 -136.08301178 13.06684204 -135.35908508 12.98858643 C-128.98070602 12.29905169 -122.60234787 11.60932373 -116.22406006 10.91894531 C-99.30331014 9.08811475 -82.38006882 7.29712349 -65.4402771 5.65048218 C-55.85651366 4.7186082 -46.2854613 3.70743794 -36.71875 2.61328125 C-35.67833557 2.49484863 -34.63792114 2.37641602 -33.565979 2.25439453 C-28.47996304 1.67459525 -23.39507735 1.08684331 -18.31152344 0.48583984 C-16.48375284 0.27546506 -14.65595476 0.06532891 -12.828125 -0.14453125 C-11.99164429 -0.24634201 -11.15516357 -0.34815277 -10.29333496 -0.45304871 C-6.58042943 -0.87291459 -3.58268824 -1.05782416 0 0 Z " fill="#2B3B9E" transform="translate(790,628)"/>
<path d="M0 0 C13.7671875 -0.0928125 13.7671875 -0.0928125 27.8125 -0.1875 C32.12598511 -0.22846802 32.12598511 -0.22846802 36.52661133 -0.27026367 C38.83674705 -0.27903544 41.14688744 -0.28667774 43.45703125 -0.29296875 C44.63148804 -0.30831665 45.80594482 -0.32366455 47.01599121 -0.33947754 C56.99557013 -0.34260757 66.36032534 0.72046334 74.28125 7.26171875 C80.44563601 13.4961546 83.27553343 20.96428143 83.375 29.6875 C83.25677758 37.67595783 81.39326087 44.06821428 77.25 50.875 C67.54738724 60.03857872 56.45274414 61.46079061 43.5546875 61.29296875 C41.88901733 61.28843689 41.88901733 61.28843689 40.18969727 61.28381348 C36.08470215 61.26824619 31.97984066 61.22636335 27.875 61.1875 C18.67625 61.125625 9.4775 61.06375 0 61 C0 40.87 0 20.74 0 0 Z " fill="#FDFDFE" transform="translate(1052,1116)"/>
<path d="M0 0 C0.66 0 1.32 0 2 0 C8.80053999 16.38613125 15.56669909 32.78508502 22.2421875 49.22265625 C23.93255423 53.38379402 25.63118712 57.54135757 27.34028625 61.69482422 C28.12171855 63.59412942 28.90175766 65.49400095 29.68139648 67.39404297 C30.66775234 69.79653657 31.65674857 72.19794825 32.64868164 74.59814453 C33.08817139 75.6704834 33.52766113 76.74282227 33.98046875 77.84765625 C34.37129639 78.79648682 34.76212402 79.74531738 35.16479492 80.72290039 C36 83 36 83 36 85 C12.9 85 -10.2 85 -34 85 C-33.22546428 80.35278566 -32.52631209 77.46088796 -30.69921875 73.30859375 C-30.22266846 72.21369629 -29.74611816 71.11879883 -29.25512695 69.99072266 C-28.73781006 68.81815918 -28.22049316 67.6455957 -27.6875 66.4375 C-26.58758402 63.91430334 -25.49303942 61.38878696 -24.3984375 58.86328125 C-24.11706436 58.21562805 -23.83569122 57.56797485 -23.54579163 56.9006958 C-20.55660292 50.0075969 -17.67660905 43.0708238 -14.8125 36.125 C-14.31935303 34.9297168 -13.82620605 33.73443359 -13.31811523 32.50292969 C-8.85818302 21.6770607 -4.42035325 10.84208763 0 0 Z " fill="#FBFBFD" transform="translate(1329,1122)"/>
<path d="M0 0 C3.02147202 2.54938423 4.13005062 5.28107837 5.57421875 8.921875 C5.81522812 9.52235657 6.05623749 10.12283813 6.30455017 10.74151611 C7.10578979 12.74165454 7.89645616 14.74580987 8.6875 16.75 C9.54251218 18.89118703 10.40033532 21.03123501 11.25823975 23.17126465 C11.86707247 24.69052417 12.4750019 26.21014595 13.08209229 27.73010254 C17.20225271 38.03595459 21.44762986 48.29068064 25.67684937 58.55212402 C26.67367634 60.97180273 27.6689721 63.39210672 28.6640625 65.8125 C28.95731918 66.52279358 29.25057587 67.23308716 29.55271912 67.96490479 C30.37784848 69.9729895 31.19287298 71.98461486 32 74 C32.28832703 74.71978027 32.57665405 75.43956055 32.87371826 76.18115234 C34.07003524 79.25237277 35 81.67431946 35 85 C11.9 85 -11.2 85 -35 85 C-33.04288997 79.12866991 -31.05191775 73.49070893 -28.62890625 67.828125 C-28.31028122 67.07538803 -27.99165619 66.32265106 -27.66337585 65.54710388 C-26.63270941 63.11346931 -25.59756395 60.68176703 -24.5625 58.25 C-23.11941252 54.84576306 -21.67879896 51.44048126 -20.23828125 48.03515625 C-19.69921646 46.76204338 -19.69921646 46.76204338 -19.14926147 45.46321106 C-15.31128374 36.39062338 -11.55032385 27.28673186 -7.80688477 18.17480469 C-5.29497637 12.07374385 -2.72475198 6.00929212 0 0 Z " fill="#FBFBFD" transform="translate(463,1122)"/>
<path d="M0 0 C6.29433618 3.37196581 9.75869117 8.5805348 11.875 15.375 C12.99138227 23.34915906 11.64647614 29.82995359 6.875 36.375 C0.23772574 42.84141374 -5.28649154 43.6875 -14.40600586 43.6875 C-19.839083 43.57146777 -23.94267417 42.9428609 -28.125 39.375 C-34.80759317 32.19194832 -35.49276042 26.5378649 -35.40234375 16.86328125 C-34.91112085 10.68494255 -32.77177757 6.61045043 -28.1875 2.5 C-20.20650189 -3.03783542 -9.02728737 -3.64738884 0 0 Z " fill="#3040A0" transform="translate(859.125,1338.625)"/>
<path d="M0 0 C5.62143784 2.99102919 8.71736156 7.83787977 11.3125 13.5 C12.92442489 21.23723946 12.07550433 28.53958078 7.80078125 35.296875 C4.32501379 39.72655971 0.44520803 42.44691877 -5.0625 43.5 C-7.51801985 43.64411629 -9.97793102 43.72054408 -12.4375 43.75 C-13.72398438 43.77578125 -15.01046875 43.8015625 -16.3359375 43.828125 C-22.26634786 43.3059505 -26.83167919 40.61948342 -31.0625 36.5 C-36.36516567 29.83280473 -35.93224618 21.61171438 -35.0625 13.5 C-33.4383352 7.49606496 -30.08664949 3.98614454 -25.0625 0.5 C-17.86442337 -3.06763309 -7.46749836 -2.87505048 0 0 Z " fill="#2F3FA0" transform="translate(1113.0625,1338.5)"/>
<path d="M0 0 C4.49625 -0.061875 8.9925 -0.12375 13.625 -0.1875 C15.03217285 -0.21481201 16.4393457 -0.24212402 17.88916016 -0.27026367 C19.01112793 -0.27775635 20.1330957 -0.28524902 21.2890625 -0.29296875 C23.00150146 -0.31653442 23.00150146 -0.31653442 24.74853516 -0.34057617 C29.41172318 0.14787159 32.77081163 1.65185792 35.9375 5.125 C37.4637668 9.2548984 37.06605023 12.76738577 36 17 C34.4375 19.5625 34.4375 19.5625 33 21 C33.825 21.61875 34.65 22.2375 35.5 22.875 C38.05068693 25.42568693 38.46503445 27.42743595 38.625 31 C38.4325108 34.80449243 38.12172472 35.83770038 35.75 39 C31.00460552 42.45119599 28.21164462 43.24747057 22.265625 43.1953125 C21.09805664 43.19031738 19.93048828 43.18532227 18.72753906 43.18017578 C17.24995117 43.16196777 15.77236328 43.14375977 14.25 43.125 C9.5475 43.08375 4.845 43.0425 0 43 C0 28.81 0 14.62 0 0 Z " fill="#2E3E9F" transform="translate(338,1338)"/>
<path d="M0 0 C3.63 0 7.26 0 11 0 C11 14.85 11 29.7 11 45 C7.7 45 4.4 45 1 45 C-1.71065591 42.25186958 -3.32907707 40.22478962 -5.25 37 C-6.21235863 35.49924072 -7.17589799 33.99923792 -8.140625 32.5 C-8.75212402 31.49453125 -8.75212402 31.49453125 -9.37597656 30.46875 C-11.74845762 26.86223641 -14.40986132 23.45351824 -17 20 C-17.33 27.92 -17.66 35.84 -18 44 C-21.3 44 -24.6 44 -28 44 C-28 29.81 -28 15.62 -28 1 C-19 1 -19 1 -16.72265625 2.6953125 C-15.90087891 3.89800781 -15.90087891 3.89800781 -15.0625 5.125 C-14.42441406 6.0221875 -13.78632812 6.919375 -13.12890625 7.84375 C-12.42636719 8.8853125 -11.72382812 9.926875 -11 11 C-9.67514773 12.85332385 -8.33816777 14.69747023 -6.99975586 16.54101562 C-4.98050439 19.34686465 -2.99353678 22.17582289 -1 25 C-0.67 16.75 -0.34 8.5 0 0 Z " fill="#3342A1" transform="translate(1359,1337)"/>
<path d="M0 0 C10 0 10 0 12.8828125 2.45703125 C13.66377827 3.55234488 14.41041705 4.67276727 15.125 5.8125 C15.52895996 6.39475342 15.93291992 6.97700684 16.34912109 7.5769043 C17.1795483 8.77660935 17.99684337 9.98551034 18.80078125 11.203125 C20.65091553 13.97531317 22.64325303 16.6329548 24.625 19.3125 C26.295625 21.6328125 26.295625 21.6328125 28 24 C28.33 16.08 28.66 8.16 29 0 C32.3 0 35.6 0 39 0 C39 14.19 39 28.38 39 43 C30 43 30 43 27.72265625 41.3046875 C26.90087891 40.10199219 26.90087891 40.10199219 26.0625 38.875 C25.42441406 37.9778125 24.78632812 37.080625 24.12890625 36.15625 C23.42636719 35.1146875 22.72382812 34.073125 22 33 C20.67514773 31.14667615 19.33816777 29.30252977 17.99975586 27.45898438 C15.98050439 24.65313535 13.99353678 21.82417711 12 19 C11.67 27.25 11.34 35.5 11 44 C7.37 44 3.74 44 0 44 C0 29.48 0 14.96 0 0 Z " fill="#3342A1" transform="translate(1143,1338)"/>
<path d="M0 0 C10 0 10 0 13.390625 3.18359375 C14.37756385 4.57823863 15.3303219 5.99761291 16.25 7.4375 C16.72695313 8.12521484 17.20390625 8.81292969 17.6953125 9.52148438 C19.16544853 11.65715496 20.58242008 13.82908868 22 16 C23.98 18.97 25.96 21.94 28 25 C28.33 16.75 28.66 8.5 29 0 C32.3 0 35.6 0 39 0 C39 14.19 39 28.38 39 43 C29 43 29 43 26.1171875 40.32421875 C25.33515726 39.13402799 24.5887127 37.9198715 23.875 36.6875 C23.05292823 35.40700927 22.22999899 34.12706866 21.40625 32.84765625 C21.00792969 32.20328613 20.60960937 31.55891602 20.19921875 30.89501953 C18.38924848 28.03488328 16.3893402 25.34506854 14.375 22.625 C12.704375 20.335625 12.704375 20.335625 11 18 C10.67 26.25 10.34 34.5 10 43 C6.7 43 3.4 43 0 43 C0 28.81 0 14.62 0 0 Z " fill="#2D3D9E" transform="translate(539,1338)"/>
<path d="M0 0 C3.3 0 6.6 0 10 0 C10.01981934 0.85754883 10.03963867 1.71509766 10.06005859 2.59863281 C10.13829521 5.78947642 10.22499343 8.9799474 10.31738281 12.17041016 C10.35559338 13.54955243 10.39046002 14.92879167 10.421875 16.30810547 C10.46769624 18.29416967 10.52666263 20.27991679 10.5859375 22.265625 C10.6173584 23.45961914 10.6487793 24.65361328 10.68115234 25.88378906 C10.98266004 28.83053048 11.36619547 30.55981749 13 33 C15.32686453 34.16343227 16.84721413 34.19895988 19.4375 34.25 C20.61119141 34.28867188 20.61119141 34.28867188 21.80859375 34.328125 C24.53677498 33.91962728 25.3441611 33.16727539 27 31 C28.1007076 27.6978772 28.20627072 25.05916721 28.31640625 21.58203125 C28.35830078 20.32841797 28.40019531 19.07480469 28.44335938 17.78320312 C28.48267578 16.47287109 28.52199219 15.16253906 28.5625 13.8125 C28.60570992 12.47720022 28.649325 11.14191348 28.69335938 9.80664062 C28.79956502 6.53786703 28.90160997 3.26901667 29 0 C32.3 0 35.6 0 39 0 C39.09965569 4.26832981 39.17183391 8.53602469 39.21972656 12.80517578 C39.23971295 14.25418917 39.26691197 15.70312325 39.30175781 17.15185547 C39.65565035 32.25473998 39.65565035 32.25473998 35 39 C27.861247 44.68186464 20.85818432 44.85344633 12 44 C6.43209442 42.10436192 3.72134657 39.0836206 0.85916138 33.97215271 C-0.5435507 30.75231241 -0.44649134 27.79408597 -0.390625 24.31640625 C-0.38496521 23.61603745 -0.37930542 22.91566864 -0.37347412 22.19407654 C-0.3512922 19.98282055 -0.30113806 17.77325627 -0.25 15.5625 C-0.22991115 14.05275797 -0.21166458 12.54299025 -0.1953125 11.03320312 C-0.15148947 7.35493001 -0.08259341 3.67763044 0 0 Z " fill="#2C3C9E" transform="translate(395,1338)"/>
<path d="M0 0 C3.3 0 6.6 0 10 0 C10.01458252 0.82201904 10.02916504 1.64403809 10.04418945 2.4909668 C10.11876333 6.22361323 10.21539512 9.95537459 10.3125 13.6875 C10.33505859 14.98107422 10.35761719 16.27464844 10.38085938 17.60742188 C10.41630859 18.85458984 10.45175781 20.10175781 10.48828125 21.38671875 C10.51446533 22.53358154 10.54064941 23.68044434 10.56762695 24.86206055 C11.08123454 28.58955818 12.31660959 31.31660959 15 34 C16.4555937 34.09858603 17.91607919 34.12972143 19.375 34.125 C20.56222656 34.12886719 20.56222656 34.12886719 21.7734375 34.1328125 C24.17343496 34.08617666 24.17343496 34.08617666 27 33 C28.38122152 29.60426563 28.20526383 25.88569243 28.31640625 22.265625 C28.35830078 20.97011719 28.40019531 19.67460938 28.44335938 18.33984375 C28.48316671 16.97656524 28.52287906 15.61328394 28.5625 14.25 C28.60572274 12.87108125 28.64933821 11.49217474 28.69335938 10.11328125 C28.79943958 6.7422881 28.9014985 3.37122174 29 0 C32.3 0 35.6 0 39 0 C39.09965569 4.26832981 39.17183391 8.53602469 39.21972656 12.80517578 C39.23971295 14.25418917 39.26691197 15.70312325 39.30175781 17.15185547 C39.65565035 32.25473998 39.65565035 32.25473998 35 39 C27.85626507 44.68582984 20.8625945 44.84405662 12 44 C7.02349382 42.37408806 4.75479024 40.0959232 1.8046875 35.8125 C-1.2623102 29.36870686 -0.41753887 21.96550756 -0.25 15 C-0.22990336 13.54299331 -0.21165818 12.08595985 -0.1953125 10.62890625 C-0.15156901 7.0853745 -0.08271767 3.54286123 0 0 Z " fill="#2E3D9F" transform="translate(938,1338)"/>
<path d="M0 0 C1.7550374 0.84376798 3.50825359 1.6916268 5.25 2.5625 C4.17598892 5.47767292 3.47189824 7.34060176 1.25 9.5625 C-0.59765625 9.28515625 -0.59765625 9.28515625 -2.8125 8.625 C-7.79013265 7.35635012 -11.70072455 7.76102771 -16.75 8.5625 C-17.08 10.2125 -17.41 11.8625 -17.75 13.5625 C-13.22978332 16.20023243 -8.24775708 16.6826843 -3.16015625 17.5859375 C1.14409353 18.81854053 3.93433373 20.74562753 6.5625 24.375 C7.58529387 27.62934413 7.60124367 30.16714454 7.25 33.5625 C4.92648304 37.87760293 2.37455418 41.52826528 -2.42578125 43.1171875 C-10.74850523 44.71179344 -19.55998095 44.46998122 -27.2109375 40.73046875 C-28.75 39.5625 -28.75 39.5625 -29.75 36.5625 C-27.8125 33.375 -27.8125 33.375 -25.75 30.5625 C-24.986875 30.871875 -24.22375 31.18125 -23.4375 31.5 C-19.49341935 33.0592877 -16.4795875 33.72157535 -12.25 33.75 C-11.2909375 33.76417969 -10.331875 33.77835938 -9.34375 33.79296875 C-6.51253861 33.75005111 -6.51253861 33.75005111 -3.75 31.5625 C-4.08 30.2425 -4.41 28.9225 -4.75 27.5625 C-6.4515625 27.129375 -6.4515625 27.129375 -8.1875 26.6875 C-8.91582031 26.50058594 -9.64414062 26.31367187 -10.39453125 26.12109375 C-11.94400005 25.75364095 -13.50511263 25.43178302 -15.07421875 25.16015625 C-20.689286 24.15916803 -23.69807441 22.61442559 -27.75 18.5625 C-29.60360833 14.85528333 -29.20315231 10.60895862 -28.75 6.5625 C-23.23299185 -3.4105532 -9.68504541 -3.60085022 0 0 Z " fill="#3040A0" transform="translate(800.75,1338.4375)"/>
<path d="M0 0 C1.010625 0.66 2.02125 1.32 3.0625 2 C2.3125 4.9375 2.3125 4.9375 1.0625 8 C-0.75 9 -0.75 9 -2.9375 9 C-3.659375 8.690625 -4.38125 8.38125 -5.125 8.0625 C-9.95632298 6.23733354 -15.06209149 6.37486383 -19.9375 8 C-19.9375 9.98 -19.9375 11.96 -19.9375 14 C-18.86371094 14.17015625 -17.78992188 14.3403125 -16.68359375 14.515625 C-15.24727477 14.75970535 -13.81108338 15.00453729 -12.375 15.25 C-11.31829102 15.41435547 -11.31829102 15.41435547 -10.24023438 15.58203125 C-5.05741953 16.48962095 -1.3209999 18.05924093 3.0625 21 C6.04040315 25.46685473 5.66903878 29.76380444 5.0625 35 C3.08339684 38.79987807 0.4934017 40.96940735 -3.55859375 42.4921875 C-11.95004424 44.28346593 -20.61671755 43.93789734 -28.3984375 40.265625 C-29.9375 39 -29.9375 39 -30.81640625 37.03125 C-30.9375 35 -30.9375 35 -28.5 32.25 C-27.654375 31.5075 -26.80875 30.765 -25.9375 30 C-25.009375 30.495 -24.08125 30.99 -23.125 31.5 C-18.23009354 33.62647576 -13.1838985 33.45242574 -7.9375 33 C-6.9475 32.505 -6.9475 32.505 -5.9375 32 C-5.9375 30.35 -5.9375 28.7 -5.9375 27 C-9.9683575 25.77321728 -13.91273985 24.80175368 -18.0625 24.0625 C-23.37828903 23.00579535 -26.61792675 21.89138833 -29.8125 17.3125 C-31.18899039 13.25950051 -31.25420352 10.03039736 -29.9375 6 C-24.17638302 -4.05979657 -9.6770753 -4.89056494 0 0 Z " fill="#303FA0" transform="translate(483.9375,1339)"/>
<path d="M0 0 C1.609375 0.94921875 1.609375 0.94921875 2.609375 3.94921875 C0.671875 7.13671875 0.671875 7.13671875 -1.390625 9.94921875 C-2.36 9.45421875 -3.329375 8.95921875 -4.328125 8.44921875 C-8.5963251 6.61502278 -12.7999749 6.26417988 -17.390625 6.94921875 C-18.380625 7.60921875 -19.370625 8.26921875 -20.390625 8.94921875 C-20.390625 10.26921875 -20.390625 11.58921875 -20.390625 12.94921875 C-16.89174034 14.48037623 -13.72844184 15.29942293 -9.953125 15.82421875 C-4.26071492 16.80487621 -0.80222754 18.77877647 3.484375 22.63671875 C5.31371712 26.3970331 5.46089986 29.87013997 4.609375 33.94921875 C1.95150558 38.64478806 -1.2093195 41.38893925 -6.390625 42.94921875 C-16.03871664 43.78113707 -24.15344582 43.44067154 -32.390625 37.94921875 C-30.94808843 34.58330009 -29.05797773 32.43874796 -26.390625 29.94921875 C-25.648125 30.44421875 -24.905625 30.93921875 -24.140625 31.44921875 C-19.2957169 33.91825846 -13.67804272 33.36081414 -8.390625 32.94921875 C-7.400625 32.45421875 -7.400625 32.45421875 -6.390625 31.94921875 C-6.390625 30.29921875 -6.390625 28.64921875 -6.390625 26.94921875 C-7.54820313 26.706875 -8.70578125 26.46453125 -9.8984375 26.21484375 C-11.43764646 25.87696861 -12.97670101 25.5383895 -14.515625 25.19921875 C-15.65644531 24.96332031 -15.65644531 24.96332031 -16.8203125 24.72265625 C-22.37286935 23.47811764 -27.1185836 21.8409078 -30.765625 17.19921875 C-31.74404781 13.67689663 -32.15471068 10.51716664 -31.390625 6.94921875 C-24.69386229 -4.5405447 -11.37598699 -3.92346997 0 0 Z " fill="#2F3FA0" transform="translate(1233.390625,1339.05078125)"/>
<path d="M0 0 C1.609375 1.046875 1.609375 1.046875 2.43359375 3.015625 C2.609375 5.046875 2.609375 5.046875 1.171875 7.296875 C0.65625 7.874375 0.140625 8.451875 -0.390625 9.046875 C-6.140625 8.171875 -6.140625 8.171875 -8.390625 7.046875 C-10.50017562 6.84948777 -10.50017562 6.84948777 -12.828125 6.859375 C-13.61058594 6.84519531 -14.39304687 6.83101562 -15.19921875 6.81640625 C-17.68268487 6.90601436 -17.68268487 6.90601436 -20.390625 9.046875 C-20.390625 10.366875 -20.390625 11.686875 -20.390625 13.046875 C-16.91288861 14.56603061 -13.76654855 15.39524104 -10.015625 15.921875 C-4.95743144 16.79562504 -1.55458522 18.03464846 2.609375 21.046875 C5.23467249 25.23149349 5.13350357 29.25238744 4.609375 34.046875 C3.24466138 37.88513206 1.70065113 38.98192853 -1.640625 41.359375 C-8.48757128 44.46011777 -17.17937718 44.31251956 -24.2890625 42.17578125 C-26.41281495 41.23761876 -28.39659787 40.23186965 -30.390625 39.046875 C-31.050625 38.716875 -31.710625 38.386875 -32.390625 38.046875 C-30.94808843 34.68095634 -29.05797773 32.53640421 -26.390625 30.046875 C-25.648125 30.541875 -24.905625 31.036875 -24.140625 31.546875 C-19.2957169 34.01591471 -13.67804272 33.45847039 -8.390625 33.046875 C-7.400625 32.551875 -7.400625 32.551875 -6.390625 32.046875 C-6.390625 30.396875 -6.390625 28.746875 -6.390625 27.046875 C-7.669375 26.77875 -8.948125 26.510625 -10.265625 26.234375 C-26.71721913 22.49773532 -26.71721913 22.49773532 -30.390625 17.046875 C-31.61911456 12.79738281 -31.92066295 9.37196987 -30.265625 5.234375 C-22.29676049 -4.0626336 -11.01587676 -3.61835368 0 0 Z " fill="#2F3FA0" transform="translate(682.390625,1338.953125)"/>
<path d="M0 0 C1.609375 0.94921875 1.609375 0.94921875 2.609375 3.94921875 C1.171875 6.63671875 1.171875 6.63671875 -0.390625 8.94921875 C-6.140625 8.07421875 -6.140625 8.07421875 -8.390625 6.94921875 C-10.50017562 6.75183152 -10.50017562 6.75183152 -12.828125 6.76171875 C-13.61058594 6.74753906 -14.39304687 6.73335937 -15.19921875 6.71875 C-17.68268487 6.80835811 -17.68268487 6.80835811 -20.390625 8.94921875 C-20.390625 10.26921875 -20.390625 11.58921875 -20.390625 12.94921875 C-16.89174034 14.48037623 -13.72844184 15.29942293 -9.953125 15.82421875 C-4.26071492 16.80487621 -0.80222754 18.77877647 3.484375 22.63671875 C5.31371712 26.3970331 5.46089986 29.87013997 4.609375 33.94921875 C1.95150558 38.64478806 -1.2093195 41.38893925 -6.390625 42.94921875 C-16.03871664 43.78113707 -24.15344582 43.44067154 -32.390625 37.94921875 C-30.94808843 34.58330009 -29.05797773 32.43874796 -26.390625 29.94921875 C-25.648125 30.44421875 -24.905625 30.93921875 -24.140625 31.44921875 C-19.2957169 33.91825846 -13.67804272 33.36081414 -8.390625 32.94921875 C-7.400625 32.45421875 -7.400625 32.45421875 -6.390625 31.94921875 C-6.390625 30.29921875 -6.390625 28.64921875 -6.390625 26.94921875 C-7.669375 26.68109375 -8.948125 26.41296875 -10.265625 26.13671875 C-26.04849612 22.55196569 -26.04849612 22.55196569 -30.390625 16.94921875 C-31.62596545 13.2431974 -31.84591245 10.85168261 -31.390625 6.94921875 C-24.54328127 -4.47068003 -11.48345384 -3.96053426 0 0 Z " fill="#2F3FA0" transform="translate(735.390625,1339.05078125)"/>
<path d="M0 0 C10.89 0 21.78 0 33 0 C33 2.64 33 5.28 33 8 C25.08 8 17.16 8 9 8 C9 10.97 9 13.94 9 17 C16.26 17 23.52 17 31 17 C31 19.64 31 22.28 31 25 C23.74 25 16.48 25 9 25 C9 28.3 9 31.6 9 35 C16.92 35 24.84 35 33 35 C33 37.64 33 40.28 33 43 C22.11 43 11.22 43 0 43 C0 28.81 0 14.62 0 0 Z " fill="#2A3A9D" transform="translate(600,1338)"/>
<path d="M0 0 C3.14579897 1.14917057 5.76601838 2.46625088 8 5 C8 8 8 8 6 10.1875 C5.34 10.785625 4.68 11.38375 4 12 C3.030625 11.67 2.06125 11.34 1.0625 11 C-4.37823084 9.46600084 -9.67341334 9.00996313 -14.9375 11.25 C-17.7475778 13.63430844 -18.83500571 15.70147348 -19.30078125 19.3671875 C-19.32538253 24.63186049 -19.12554399 28.53493716 -16 33 C-11.61058596 35.7707581 -7.02832888 35.56232527 -2 35 C0.9254644 33.6490712 0.9254644 33.6490712 3 32 C3.66 32 4.32 32 5 32 C6.2890625 33.53125 6.2890625 33.53125 7.625 35.5 C8.07101562 36.1496875 8.51703125 36.799375 8.9765625 37.46875 C9.31429688 37.9740625 9.65203125 38.479375 10 39 C8.92250558 39.82022749 7.83770492 40.63086169 6.75 41.4375 C6.14671875 41.88996094 5.5434375 42.34242187 4.921875 42.80859375 C-0.85025209 46.38684327 -8.49228793 45.50339925 -15 45 C-20.93858495 43.53402856 -24.43063826 40.04592309 -27.8125 35.07421875 C-31.19248468 29.17036394 -32.13613052 22.47817871 -30.46484375 15.890625 C-25.553749 1.61356268 -13.87108103 -1.29729535 0 0 Z " fill="#3040A0" transform="translate(1419,1337)"/>
<path d="M0 0 C3.63 0 7.26 0 11 0 C11 11.22 11 22.44 11 34 C18.26 34 25.52 34 33 34 C33 37.3 33 40.6 33 44 C22.11 44 11.22 44 0 44 C0 29.48 0 14.96 0 0 Z " fill="#3948A4" transform="translate(889,1338)"/>
<path d="M0 0 C11.88 0 23.76 0 36 0 C36 2.97 36 5.94 36 9 C31.71 9 27.42 9 23 9 C23 20.22 23 31.44 23 43 C19.7 43 16.4 43 13 43 C13 31.45 13 19.9 13 8 C8.71 8 4.42 8 0 8 C0 5.36 0 2.72 0 0 Z " fill="#2C3B9E" transform="translate(995,1338)"/>
<path d="M0 0 C3.85544798 1.99657127 5.59805092 3.39707638 8 7 C8.3359375 9.9609375 8.3359375 9.9609375 8.375 13.375 C8.40335938 14.49648437 8.43171875 15.61796875 8.4609375 16.7734375 C7.90259671 20.68182301 6.77877837 22.24072183 4 25 C-0.3051478 27.86721111 -5.01165788 27.51826931 -10 27 C-13.13594153 25.73227896 -14.56546548 24.47948636 -16.8125 22 C-18.66223404 17.3269877 -18.89679586 12.94296932 -18 8 C-13.64567781 0.38326515 -8.40127922 -0.95351942 0 0 Z " fill="#FBFBFD" transform="translate(1106,1346)"/>
<path d="M0 0 C4.12224783 2.06112391 6.31747327 3.74063053 8 8 C8.69128923 13.32131939 8.63165723 17.71412636 6.25 22.5625 C3.56381995 25.47252838 1.57225702 26.72610598 -2.33203125 27.40625 C-7.19009264 27.58986177 -10.24081579 27.36960482 -14.0625 24.1875 C-16.71422011 21.66056672 -17.83953353 19.6478672 -18.203125 15.9140625 C-18.33349645 9.54758979 -17.22235669 6.49173326 -12.9375 1.6875 C-8.64510633 -0.77834317 -4.83784941 -0.77405591 0 0 Z " fill="#FCFCFD" transform="translate(852,1346)"/>
<path d="M0 0 C3.3 0 6.6 0 10 0 C10 14.19 10 28.38 10 43 C6.7 43 3.4 43 0 43 C0 28.81 0 14.62 0 0 Z " fill="#2C3C9F" transform="translate(1299,1338)"/>
<path d="M0 0 C3.3 0 6.6 0 10 0 C10 14.19 10 28.38 10 43 C6.7 43 3.4 43 0 43 C0 28.81 0 14.62 0 0 Z " fill="#2F3EA0" transform="translate(1049,1338)"/>
<path d="M0 0 C3.3 0 6.6 0 10 0 C10 14.19 10 28.38 10 43 C6.7 43 3.4 43 0 43 C0 28.81 0 14.62 0 0 Z " fill="#2C3C9F" transform="translate(508,1338)"/>
<path d="M0 0 C2.4377963 -0.05397335 4.87439685 -0.09365616 7.3125 -0.125 C8.00279297 -0.14175781 8.69308594 -0.15851563 9.40429688 -0.17578125 C13.17135396 -0.21217794 14.78431704 -0.14378864 18 2 C18.375 5 18.375 5 18 8 C14.31912647 10.45391569 11.55644412 10.22802759 7.3125 10.125 C6.2596582 10.11146484 6.2596582 10.11146484 5.18554688 10.09765625 C3.45688475 10.07413704 1.72839855 10.03826713 0 10 C0 6.7 0 3.4 0 0 Z " fill="#FAFAFC" transform="translate(348,1363)"/>
<path d="M0 0 C2.27057377 -0.05398987 4.54151288 -0.09278742 6.8125 -0.125 C8.07707031 -0.14820313 9.34164063 -0.17140625 10.64453125 -0.1953125 C14 0 14 0 17 2 C17.375 4.5 17.375 4.5 17 7 C13.2632157 9.49118953 11.25548181 9.2065226 6.8125 9.125 C5.54019531 9.10695313 4.26789063 9.08890625 2.95703125 9.0703125 C1.49330078 9.03550781 1.49330078 9.03550781 0 9 C0 6.03 0 3.06 0 0 Z " fill="#F6F7FB" transform="translate(348,1346)"/>
<path d="M0 0 C3.5 0.25 3.5 0.25 5.5 2.25 C6.22729051 8.31075425 4.46053215 12.16158537 1.5 17.25 C-0.15 17.25 -1.8 17.25 -3.5 17.25 C-3.43489583 15.23177083 -3.36979167 13.21354167 -3.3046875 11.1953125 C-3.31668311 9.01136355 -3.31668311 9.01136355 -5.5 7.25 C-5.75 4.75 -5.75 4.75 -5.5 2.25 C-3.5 0.25 -3.5 0.25 0 0 Z " fill="#3141A1" transform="translate(1259.5,1371.75)"/>
<path d="M0 0 C3.5 0.25 3.5 0.25 5.5 2.25 C5.8125 5.25 5.8125 5.25 5.5 8.25 C2.26746204 10.40502531 1.24849077 10.71856135 -2.5 10.25 C-4.3125 9.0625 -4.3125 9.0625 -5.5 7.25 C-5.8125 4.6875 -5.8125 4.6875 -5.5 2.25 C-3.5 0.25 -3.5 0.25 0 0 Z " fill="#3140A1" transform="translate(1449.5,1371.75)"/>
<path d="M0 0 C-5.3736411 1.99794087 -10.74882095 3.99166265 -16.12548828 5.98144531 C-17.95534783 6.6593155 -19.78477715 7.33834822 -21.61376953 8.01855469 C-24.23879257 8.99457951 -26.86532112 9.96644911 -29.4921875 10.9375 C-30.31306854 11.24373291 -31.13394958 11.54996582 -31.97970581 11.86547852 C-37.77225659 14 -37.77225659 14 -40 14 C-40 12.68 -40 11.36 -40 10 C-38.79839233 9.66005005 -38.79839233 9.66005005 -37.57250977 9.31323242 C-34.55836591 8.45941725 -31.54476188 7.60372771 -28.53149414 6.74682617 C-26.60277809 6.19894167 -24.67346531 5.65315924 -22.74414062 5.10742188 C-17.37307614 3.57884216 -12.03929839 2.04918638 -6.77734375 0.17578125 C-3 -1 -3 -1 0 0 Z " fill="#404FA9" transform="translate(1571,373)"/>
<path d="M0 0 C-3.55493311 1.37464571 -7.11993216 2.72102283 -10.6875 4.0625 C-11.69490234 4.45244141 -12.70230469 4.84238281 -13.74023438 5.24414062 C-15.20493164 5.79038086 -15.20493164 5.79038086 -16.69921875 6.34765625 C-18.04246216 6.85824585 -18.04246216 6.85824585 -19.4128418 7.37915039 C-22.31444932 8.07545953 -24.15099041 7.79251409 -27 7 C-22.50359406 4.62234628 -17.79077349 3.27848524 -12.9375 1.8125 C-12.02677734 1.52697266 -11.11605469 1.24144531 -10.17773438 0.94726562 C-9.30310547 0.68236328 -8.42847656 0.41746094 -7.52734375 0.14453125 C-6.73062256 -0.09934326 -5.93390137 -0.34321777 -5.11303711 -0.59448242 C-3 -1 -3 -1 0 0 Z " fill="#7681C2" transform="translate(1571,373)"/>
<path d="M0 0 C-2.4363189 0.67126129 -4.87388883 1.33716354 -7.3125 2 C-8.34793945 2.28617188 -8.34793945 2.28617188 -9.40429688 2.578125 C-12.35787949 3.37716184 -14.92559219 4 -18 4 C-18 3.34 -18 2.68 -18 2 C-19.32 1.67 -20.64 1.34 -22 1 C-19.08418447 0.63702296 -16.16774334 0.28431765 -13.25 -0.0625 C-12.0125 -0.2181543 -12.0125 -0.2181543 -10.75 -0.37695312 C-9.95078125 -0.47041016 -9.1515625 -0.56386719 -8.328125 -0.66015625 C-7.5949707 -0.74918213 -6.86181641 -0.83820801 -6.10644531 -0.92993164 C-3.87729995 -1.00408147 -2.12666985 -0.64094299 0 0 Z " fill="#616DB8" transform="translate(790,628)"/>
<path d="M0 0 C-1 2 -1 2 -3.3125 3.1875 C-6.11989571 4.03624754 -7.301935 3.99928333 -10 3 C-9 1 -9 1 -7.25 0.375 C-4.79549443 -0.03408426 -2.4840589 -0.06900164 0 0 Z " fill="#3847A5" transform="translate(1547,380)"/>
<path d="M0 0 C-0.33 0.99 -0.66 1.98 -1 3 C-3.3125 3.625 -3.3125 3.625 -6 4 C-6.99 3.34 -7.98 2.68 -9 2 C-2.25 0 -2.25 0 0 0 Z " fill="#5966B5" transform="translate(1553,377)"/>
</svg>
